<svg xmlns="http://www.w3.org/2000/svg" width="56.21" height="64.942" viewBox="0 0 56.21 64.942"><g transform="translate(-260 -156)"><g transform="translate(272.602 212.366) rotate(-45)"><ellipse cx="4.948" cy="4.989" rx="4.948" ry="4.989" transform="translate(1.074 1.074)" fill="#f4b10b"/><path d="M6.022,1.074A4.989,4.989,0,1,0,10.97,6.064,4.969,4.969,0,0,0,6.022,1.074M6.022,0A6.064,6.064,0,1,1,0,6.064,6.05,6.05,0,0,1,6.022,0Z" transform="translate(0 0)" fill="#653211"/><path d="M0,3.563A5.558,5.558,0,0,1,5.745.028,3.423,3.423,0,0,1,0,3.563Z" transform="translate(1.324 0.942)" fill="#fbd000"/><path d="M3.569,2.708A4.418,4.418,0,0,1,.1.852.537.537,0,0,1,.972.222a3.034,3.034,0,0,0,3.98,1.006.537.537,0,0,1,.566.913A3.662,3.662,0,0,1,3.569,2.708Z" transform="translate(2.598 7.139)" fill="#fff"/></g><path d="M5.443,10.886A5.444,5.444,0,0,1,3.324.428,5.444,5.444,0,0,1,7.562,10.458,5.409,5.409,0,0,1,5.443,10.886Zm0-8.589A3.146,3.146,0,1,0,8.589,5.443,3.15,3.15,0,0,0,5.443,2.3Z" transform="translate(283.283 157.074)" fill="#fbd000"/><path d="M-8.483-3.04a5.409,5.409,0,0,0,2.119-.428,5.425,5.425,0,0,0,1.73-1.166,5.425,5.425,0,0,0,1.166-1.73A5.409,5.409,0,0,0-3.04-8.483,5.409,5.409,0,0,0-3.467-10.6a5.425,5.425,0,0,0-1.166-1.73A5.425,5.425,0,0,0-6.364-13.5a5.409,5.409,0,0,0-2.119-.428A5.409,5.409,0,0,0-10.6-13.5a5.425,5.425,0,0,0-1.73,1.166A5.425,5.425,0,0,0-13.5-10.6a5.409,5.409,0,0,0-.428,2.119A5.409,5.409,0,0,0-13.5-6.364a5.425,5.425,0,0,0,1.166,1.73A5.425,5.425,0,0,0-10.6-3.467a5.409,5.409,0,0,0,2.119.428m0-8.589A3.15,3.15,0,0,1-5.337-8.483,3.15,3.15,0,0,1-8.483-5.337a3.15,3.15,0,0,1-3.146-3.146,3.15,3.15,0,0,1,3.146-3.146m0,9.663a6.478,6.478,0,0,1-2.537-.513,6.494,6.494,0,0,1-2.071-1.4,6.494,6.494,0,0,1-1.4-2.071A6.478,6.478,0,0,1-15-8.483a6.478,6.478,0,0,1,.513-2.537,6.494,6.494,0,0,1,1.4-2.071,6.494,6.494,0,0,1,2.071-1.4A6.477,6.477,0,0,1-8.483-15a6.477,6.477,0,0,1,2.537.513,6.494,6.494,0,0,1,2.071,1.4,6.494,6.494,0,0,1,1.4,2.071,6.478,6.478,0,0,1,.513,2.537,6.477,6.477,0,0,1-.513,2.537,6.494,6.494,0,0,1-1.4,2.071,6.494,6.494,0,0,1-2.071,1.4A6.478,6.478,0,0,1-8.483-1.965Zm0-8.589a2.074,2.074,0,0,0-2.072,2.072A2.074,2.074,0,0,0-8.483-6.411,2.074,2.074,0,0,0-6.411-8.483,2.074,2.074,0,0,0-8.483-10.554Z" transform="translate(297.209 171)" fill="#663210"/><path d="M327.333,273.8s.924-7.577,2.172-15.285,6.05-20.492,18.49-20.492,17.337,14.531,17.867,20.492,2.719,16.769,3.091,16.845-.531,3.25-.531,3.25H326.374Z" transform="translate(-59.54 -73.472)" fill="#f4b10b"/><path d="M351.422,264.687s.9-3.175.531-3.25-2.563-10.883-3.093-16.845S343.431,224.1,330.984,224.1s-17.251,12.785-18.5,20.492-2.173,15.285-2.173,15.285l-.96,4.81h42.07m.8,1.074H308.052l1.209-6.057c.076-.616.983-7.937,2.174-15.285,1.675-10.342,7.691-21.393,19.55-21.393,12.866,0,18.314,14.465,18.936,21.47a122.6,122.6,0,0,0,2.86,16.222l.132.2c.2.328.469.777-.467,4.066Z" transform="translate(-42.53 -59.547)" fill="#663210"/><path d="M0,24.636c.2-1.347.417-2.744.644-4.144C1.89,12.785,6.685,0,19.109,0S36.423,14.531,36.952,20.492c.086.97.211,2.02.362,3.1A22.909,22.909,0,0,1,0,24.636Z" transform="translate(269.344 164.554)" fill="#fbd000"/><g transform="translate(260 200.672)"><rect width="53.095" height="7.305" rx="3.653" transform="translate(1.074 1.074)" fill="#f4b10b"/><path d="M-10.308-13.926a3.639,3.639,0,0,0-3.626,3.653,3.639,3.639,0,0,0,3.626,3.653H35.551a3.639,3.639,0,0,0,3.626-3.653,3.639,3.639,0,0,0-3.626-3.653H-10.308m0-1.074H35.551a4.715,4.715,0,0,1,4.692,4.727,4.715,4.715,0,0,1-4.692,4.727H-10.308A4.715,4.715,0,0,1-15-10.273,4.715,4.715,0,0,1-10.308-15Z" transform="translate(15 15)" fill="#653210"/></g><path d="M383.678,355.89a.545.545,0,0,1-.1-.009.537.537,0,0,1-.432-.625,37.274,37.274,0,0,1,2.885-9.048.537.537,0,1,1,.961.48,36.664,36.664,0,0,0-2.788,8.759A.537.537,0,0,1,383.678,355.89Z" transform="translate(-111.106 -171.251)" fill="#fff"/><path d="M588.815,281.216a.537.537,0,0,1-.516-.389c-3.031-10.534-9.773-13.252-9.841-13.278a.537.537,0,0,1,.384-1c.3.113,7.3,2.9,10.489,13.984a.538.538,0,0,1-.516.686Z" transform="translate(-286.728 -99.749)" fill="#fff"/><path d="M694.758,469.635a.537.537,0,0,1-.533-.478c0-.028-.315-2.822-.543-3.886a.537.537,0,1,1,1.05-.225c.239,1.117.547,3.876.56,3.993a.537.537,0,0,1-.474.593A.546.546,0,0,1,694.758,469.635Z" transform="translate(-390.737 -278.141)" fill="#fff"/><g transform="translate(299.523 171.611)"><rect width="16.687" height="16.687" rx="8.344" transform="translate(0)" fill="#fff"/><path d="M2.65,1.074A1.577,1.577,0,0,0,1.074,2.65V14.037A1.577,1.577,0,0,0,2.65,15.613H14.037a1.577,1.577,0,0,0,1.576-1.576V2.65a1.577,1.577,0,0,0-1.576-1.576H2.65M2.65,0H14.037a2.65,2.65,0,0,1,2.65,2.65V14.037a2.65,2.65,0,0,1-2.65,2.65H2.65A2.65,2.65,0,0,1,0,14.037V2.65A2.65,2.65,0,0,1,2.65,0Z" transform="translate(0)" fill="#663210"/><path d="M-6.963,2.312A.537.537,0,0,1-7.5,1.775V-6.963A.537.537,0,0,1-6.963-7.5a.537.537,0,0,1,.537.537V1.775A.537.537,0,0,1-6.963,2.312Z" transform="translate(16.81 11.153)" fill="#663210"/><path d="M-.732-6.426H-6.963A.537.537,0,0,1-7.5-6.963.537.537,0,0,1-6.963-7.5H-.732a.537.537,0,0,1,.537.537A.537.537,0,0,1-.732-6.426Z" transform="translate(12.084 17.598)" fill="#663210"/><path d="M-6.964.019a.535.535,0,0,1-.308-.1A.537.537,0,0,1-7.4-.826l4.512-6.446A.537.537,0,0,1-2.143-7.4a.537.537,0,0,1,.132.748L-6.523-.21A.537.537,0,0,1-6.964.019Z" transform="translate(12.084 11.153)" fill="#663210"/></g><path d="M575.487,470.6a.538.538,0,0,1-.514-.7c.882-2.866,1.037-9.793.012-12.458a.537.537,0,0,1,1-.386c1.119,2.91.951,10.11.012,13.16A.537.537,0,0,1,575.487,470.6Z" transform="translate(-292.56 -279.376)" fill="#fff" opacity="0.31"/><path d="M.537,13.884a.538.538,0,0,1-.514-.7C.906,10.322,1.061,3.4.036.73a.537.537,0,0,1,1-.386c1.119,2.91.951,10.11.012,13.16A.537.537,0,0,1,.537,13.884Z" transform="matrix(0.921, -0.391, 0.391, 0.921, 284.554, 178.248)" fill="#fff" opacity="0.31"/><path d="M576.237,470.6a.537.537,0,0,1-.513-.379c-.938-3.05-1.107-10.25.012-13.16a.537.537,0,0,1,1,.386c-1.025,2.665-.87,9.592.012,12.458a.538.538,0,0,1-.514.7Z" transform="translate(-283.325 -279.376)" fill="#fff" opacity="0.31"/></g></svg>