<?xml version="1.0" encoding="utf-8"?>
<!-- Uploaded to: SVG Repo, www.svgrepo.com, Generator: SVG Repo Mixer Tools -->
<svg width="800px" height="800px" viewBox="0 0 1024 1024" class="icon"  version="1.1" xmlns="http://www.w3.org/2000/svg"><path d="M842.696 761.156V356.804H196.218v406.453l-83.118 0.27v39.012l14.925 17.62 784.651 5.411 22.215-32.835v-31.879z" fill="#FCE3C3" /><path d="M917.431 834.604l-793.602-5.474-19.729-23.291v-51.282l83.117-0.271V347.805h664.479v404.322l92.194-0.3v43.666l-26.459 39.111z m-785.21-23.417l775.7 5.351 17.97-26.562v-20.09l-92.194 0.3V365.805H205.218v406.423l-83.117 0.271v26.741l10.12 11.947z" fill="#300604" /><path d="M791.228 405.065H247.55v361.464h219.181l2.047 6.862h104.115l4.397-6.862h213.938z" fill="#228E9D" /><path d="M522.169 592.507m-110.228 0a110.228 110.228 0 1 0 220.456 0 110.228 110.228 0 1 0-220.456 0Z" fill="#ED8F27" /><path d="M475.815 532.432v120.484l114.873-62.228z" fill="#B12800" /><path d="M247.551 773.391h-50.066a9.267 9.267 0 0 1-9.267-9.267v-413.32h396.003c5.118 0 9.268 4.149 9.268 9.267v50.066a9.267 9.267 0 0 1-9.268 9.267H256.819v344.718c0 5.12-4.15 9.269-9.268 9.269z m-40.798-18.535h31.531V410.138a9.267 9.267 0 0 1 9.267-9.267h327.402V369.34h-368.2v385.516zM843.964 773.391H793.91c-5.117 0-9.268-4.151-9.268-9.267V454.946c0-5.119 4.151-9.267 9.268-9.267h50.054c5.117 0 9.268 4.148 9.268 9.267v309.178c-0.001 5.116-4.151 9.267-9.268 9.267z m-40.787-18.535h31.519V467.779h-31.519v287.077z" fill="#300604" /><path d="M908.938 827.465L131.763 823a9.267 9.267 0 0 1-7.476-3.789c-3.152-4.301-11.806-11.863-13.954-19.544-2.528-9.02-1.901-28.956-1.333-35.333 0.425-4.784-0.699-9.477 4.1-9.477h354.047c5.119 0 9.267 4.151 9.267 9.267v8.483h88.62v-8.483c0-5.116 4.151-9.267 9.267-9.267h354.058a9.267 9.267 0 0 1 9.231 8.453c0.567 6.371 2.209 27.875-0.302 36.894-2.148 7.687-17.727 19.17-20.877 23.471a9.255 9.255 0 0 1-7.473 3.79z m-776.769-15.387h777.126c4.754-6.818 9.436-14.336 10.142-16.851 0.845-3.047 0.808-12.453 0.295-21.835H583.57v8.483c0 5.116-4.151 9.267-9.267 9.267H467.147c-5.119 0-9.267-4.151-9.267-9.267v-8.483H121.728c-0.522 9.376-0.558 18.777 0.295 21.829 0.707 2.521 5.389 10.039 10.146 16.857zM520.736 712.223c-66.317 0-120.272-53.945-120.272-120.254 0-66.308 53.955-120.254 120.272-120.254 66.303 0 120.248 53.945 120.248 120.254s-53.945 120.254-120.248 120.254z m0-221.972c-56.097 0-101.737 45.631-101.737 101.719 0 56.088 45.64 101.719 101.737 101.719 56.088 0 101.713-45.631 101.713-101.719 0-56.088-45.625-101.719-101.713-101.719z" fill="#300604" /><path d="M541.233 455.314h-73.138l-4.825-289.088h456.857v282.451H612.403l-71.17 95.53z" fill="#FCE3C3" /><path d="M535.014 572.452v-101.56H463.27V166.226h471.622v304.666H622.878l-87.864 101.56z m-49.529-123.775h71.745v64.144l55.495-64.144h299.951V188.442H485.485v260.235z" fill="#300604" /><path d="M554.561 241.753h106.427v22.215H554.561zM734.316 265.842h97.069v22.215h-97.069zM572.893 348.875h155.688v22.215H572.893zM772.072 378.025h69.763v22.215h-69.763zM481.896 665.59c-2.619 0-5.246-1.115-7.124-3.325-1.446-1.701-2.144-3.915-2.144-6.147V529.735a9.264 9.264 0 0 1 4.634-8.025 9.251 9.251 0 0 1 9.268 0l109.626 63.294a9.264 9.264 0 0 1 0 16.05L486.53 664.348a9.279 9.279 0 0 1-4.634 1.242z m9.268-119.802v94.485l81.823-47.244-81.823-47.241z" fill="#300604" /></svg>