<?xml version="1.0" encoding="iso-8859-1"?>
<!-- Uploaded to: SVG Repo, www.svgrepo.com, Generator: SVG Repo Mixer Tools -->
<svg height="800px" width="800px" version="1.1" id="Layer_1" xmlns="http://www.w3.org/2000/svg" xmlns:xlink="http://www.w3.org/1999/xlink" 
	 viewBox="0 0 512.001 512.001" xml:space="preserve">
<path style="fill:#FF3501;" d="M488.041,419.009l-98.106-146.321c-5.164-7.681-15.568-9.739-23.217-4.581l-91.962,68.794
	c-7.833,4.898-10.219,15.22-5.327,23.059l90.109,144.174c3.072,4.908,8.443,7.866,14.196,7.866c0.261,0,0.523-0.006,0.795-0.017
	c6.047-0.289,11.461-3.819,14.174-9.233l28.839-57.687h56.597c6.177,0,11.853-3.405,14.762-8.857
	C491.809,430.755,491.484,424.141,488.041,419.009z"/>
<path style="fill:#FF6243;" d="M235.427,339.69l-92.223-68.604c-7.681-5.147-18.085-3.089-23.217,4.586L23.961,419.015
	c-3.443,5.136-3.77,11.744-0.86,17.197c2.908,5.448,8.585,8.852,14.762,8.852H94.46l28.839,57.687
	c2.713,5.415,8.127,8.945,14.174,9.233c0.272,0.011,0.534,0.017,0.795,0.017c5.752,0,11.124-2.957,14.196-7.872l88.291-141.381
	C245.646,354.91,243.259,344.588,235.427,339.69z"/>
<path style="fill:#EFBE44;" d="M255.966,388.645c-24.212,0-33.898-16.169-46.858-32.204c-2.528-3.116-6.635-4.461-10.525-3.42
	c-19.332,5.201-37.047,12.898-56.837-1.482c-19.585-14.215-17.919-32.983-18.979-53.608c-0.208-4.004-2.757-7.511-6.493-8.945
	c-18.74-7.173-37.554-11.346-45.125-34.607c-7.476-23.026,4.872-37.197,16.167-54.533c2.179-3.356,2.179-7.692,0-11.047
	c-10.949-16.816-23.725-31.251-16.167-54.528c7.496-23.034,25.861-27.239,45.125-34.612c3.737-1.432,6.286-4.941,6.493-8.939
	c1.025-19.971-0.819-39.243,18.979-53.613c19.599-14.235,36.878-6.852,56.848-1.482c3.879,1.041,7.986-0.295,10.502-3.41
	C221.792,16.518,231.52,0,255.966,0c24.212,0,33.861,16.131,46.858,32.204c2.538,3.127,6.689,4.456,10.525,3.42
	c19.364-5.207,37.052-12.89,56.837,1.476c19.59,14.229,17.921,33.021,18.979,53.613c0.208,3.998,2.767,7.511,6.504,8.945
	c18.675,7.149,37.56,11.346,45.114,34.612c7.333,22.586-4.209,36.172-15.264,53.171c-2.734,4.184-2.734,9.576-0.011,13.749
	c9.94,15.282,22.814,29.964,15.274,53.188c-7.477,23.029-25.888,27.248-45.114,34.607c-3.737,1.432-6.298,4.947-6.504,8.961
	c-1.026,19.971,0.813,39.221-18.979,53.596c-19.538,14.195-36.781,6.863-56.848,1.476c-3.791-1.046-7.986,0.289-10.502,3.416
	C290.267,371.971,280.454,388.645,255.966,388.645z"/>
<path style="fill:#E4A738;" d="M440.783,134.271c-7.554-23.267-26.439-27.464-45.114-34.612c-3.737-1.432-6.298-4.947-6.504-8.945
	c-1.058-20.591,0.611-39.383-18.979-53.613c-19.785-14.366-37.472-6.684-56.837-1.476c-3.835,1.035-7.986-0.295-10.525-3.42
	C289.827,16.131,280.178,0,255.966,0h-0.001v388.645h0.001c24.488,0,34.301-16.674,46.869-32.21
	c2.517-3.127,6.712-4.461,10.502-3.416c20.068,5.387,37.312,12.719,56.848-1.476c19.793-14.376,17.952-33.627,18.979-53.596
	c0.208-4.015,2.767-7.528,6.504-8.961c19.227-7.36,37.639-11.578,45.114-34.607c7.54-23.224-5.334-37.906-15.274-53.188
	c-2.723-4.172-2.723-9.565,0.011-13.749C436.574,170.444,448.116,156.856,440.783,134.271z"/>
<path style="fill:#ECEFF0;" d="M255.965,294.729c-55.367,0-100.405-45.044-100.405-100.405S200.598,93.918,255.965,93.918
	S356.37,138.962,356.37,194.323S311.332,294.729,255.965,294.729z"/>
<path style="fill:#DADFE4;" d="M356.37,194.323c0-55.361-45.038-100.405-100.405-100.405v200.811
	C311.332,294.729,356.37,249.685,356.37,194.323z"/>
</svg>