<svg xmlns="http://www.w3.org/2000/svg" width="216.828" height="76.571" viewBox="0 0 216.828 76.571"><g transform="translate(-115.75 -48.54)"><ellipse cx="38.244" cy="38.286" rx="38.244" ry="38.286" transform="translate(256.092 48.54)" fill="#4256a6"/><path d="M-1003.219-1303.345l-.377-6.938-.77-14.169-.363-6.685a53.84,53.84,0,0,1-.3-7.154,7.422,7.422,0,0,1,3.215-5.755,3.744,3.744,0,0,1,5.1,1.038,8.187,8.187,0,0,1,1.541,4.883c.049,1.4-.091,2.84-.159,4.222l-.305,6.189-.726,14.724-.46,9.338-.016.321a2.914,2.914,0,0,1-.32,1.192,3.1,3.1,0,0,1-2.824,1.7A3.122,3.122,0,0,1-1003.219-1303.345Zm-21.091-1.727c-.83-.687-3.442-2.844-4.156-2.3-1.146.868-2.188-.439-2.661-1.357-.767-1.492-1.506-2.993-2.27-4.49-.953-1.827-.2-2.847.842-3.892a7.468,7.468,0,0,0,2.421-5.869c.1-4.879,5.152-4.369,5.16-.672.006,3.364-3.109,13.658,15.973,12.326a3.467,3.467,0,0,1,3.376,1.458,1.75,1.75,0,0,1,.284,1.042l-.006.554c-.018,1.489-.064,4.642-.064,4.643-.023,2.038-1.676,2.983-3.559,3.1q-1.041.065-2.041.066A19.664,19.664,0,0,1-1024.311-1305.072Zm29.382.853.087-3.36c0-.025,0-.05,0-.076.193-3.868,1.262-3.843,2.632-3.819.166,0,.336.006.509,0,4.728-.108,13.271.436,13.784-3.168.543-3.816-7.909-8.379-11.709-10.227a2.563,2.563,0,0,1-1.4-2.817l.8-3.906a2.579,2.579,0,0,1,3.737-1.757c4.464,2.371,12.246,7.907,12.869,17.906.672,10.8-11.84,14.264-17.777,14.778-.174.015-.339.022-.5.022C-995.395-1300.639-994.928-1304.2-994.928-1304.219Zm-17.272-12.134-3-.034a4,4,0,0,1-3.786-4.195l.031-2.787a4,4,0,0,1,3.882-4.107l3,.034a4,4,0,0,1,3.786,4.195l-.032,2.787a4.006,4.006,0,0,1-3.839,4.107Z" transform="translate(1296.193 1406.212)" fill="#fff"/><path d="M-1018.861-1422.937v-1.533h1.727v1.533Zm-48.108-1.4h-.561l-.109-1.469h.41a4.347,4.347,0,0,0,1.813-.345,3.523,3.523,0,0,0,1.242-.918,3.8,3.8,0,0,0,.723-1.307,4.923,4.923,0,0,0,.238-1.533v-5.832h1.4v5.832a6.224,6.224,0,0,1-.4,2.278,5.377,5.377,0,0,1-1.09,1.76,4.786,4.786,0,0,1-1.631,1.134,5.162,5.162,0,0,1-1.993.4Zm-54.119,0h-1.274l-.108-1.469h1.058a4.562,4.562,0,0,0,1.857-.345,3.6,3.6,0,0,0,1.275-.921,3.737,3.737,0,0,0,.734-1.307,4.951,4.951,0,0,0,.238-1.533v-5.829h1.382v5.832a6.227,6.227,0,0,1-.4,2.278,5.379,5.379,0,0,1-1.09,1.76,4.79,4.79,0,0,1-1.63,1.134,5.17,5.17,0,0,1-1.994.4Zm-27.116,0h-1.274l-.107-1.469h1.057a4.562,4.562,0,0,0,1.857-.345,3.594,3.594,0,0,0,1.274-.918,3.72,3.72,0,0,0,.734-1.307,4.948,4.948,0,0,0,.238-1.533v-5.832h1.382v5.832a6.227,6.227,0,0,1-.4,2.278,5.379,5.379,0,0,1-1.09,1.76,4.79,4.79,0,0,1-1.63,1.134,5.17,5.17,0,0,1-1.994.4Zm18.932,0h-1.273l-.108-1.469h1.057a4.544,4.544,0,0,0,1.857-.346,3.593,3.593,0,0,0,1.274-.917,3.725,3.725,0,0,0,.733-1.307,4.948,4.948,0,0,0,.238-1.533v-5.829h1.38v5.832a6.224,6.224,0,0,1-.4,2.278,5.393,5.393,0,0,1-1.09,1.76,4.8,4.8,0,0,1-1.631,1.134,5.163,5.163,0,0,1-1.986.4Zm85.884,0a4.792,4.792,0,0,1-3.757-1.49,5.878,5.878,0,0,1-1.338-4.081v-3.778h1.381v3.735a5.885,5.885,0,0,0,.224,1.683,3.441,3.441,0,0,0,.713,1.306,3.243,3.243,0,0,0,1.219.853,4.659,4.659,0,0,0,1.77.3h.95a4.326,4.326,0,0,0,1.77-.336,3.7,3.7,0,0,0,1.263-.9,3.644,3.644,0,0,0,.756-1.317,5.045,5.045,0,0,0,.248-1.577v-13.014h1.382v10.255a1.51,1.51,0,0,0,.5,1.2,1.947,1.947,0,0,0,1.328.443h16.431a1.951,1.951,0,0,0,1.349-.454,1.591,1.591,0,0,0,.508-1.252v-2.98h1.407v2.98a3.152,3.152,0,0,1-.852,2.364,3.186,3.186,0,0,1-2.321.831h-16.516a2.831,2.831,0,0,1-1.025-.194,1.875,1.875,0,0,1-.853-.669v.474a6.3,6.3,0,0,1-.367,2.159,5.448,5.448,0,0,1-1.047,1.781,4.98,4.98,0,0,1-1.662,1.22,5.2,5.2,0,0,1-2.191.453Zm-15.68,0-.13-1.469h2.289a4.33,4.33,0,0,0,1.674-.3,3.587,3.587,0,0,0,1.22-.821,3.538,3.538,0,0,0,.753-1.2,4.792,4.792,0,0,0,.3-1.436h-2.158a5.836,5.836,0,0,1-1.814-.238,2.575,2.575,0,0,1-1.121-.69,2.509,2.509,0,0,1-.572-1.091,5.8,5.8,0,0,1-.162-1.436,5,5,0,0,1,.237-1.554,4.026,4.026,0,0,1,.691-1.3,3.317,3.317,0,0,1,1.134-.9,3.473,3.473,0,0,1,1.565-.337,3.938,3.938,0,0,1,1.36.238,3.09,3.09,0,0,1,1.145.744,3.593,3.593,0,0,1,.789,1.318,5.794,5.794,0,0,1,.292,1.954v2.936a6.372,6.372,0,0,1-.356,2.117,5.4,5.4,0,0,1-1.025,1.78,4.907,4.907,0,0,1-1.642,1.22,5.1,5.1,0,0,1-2.181.453Zm2.182-10.623a2.858,2.858,0,0,0-.561,1.857,3.162,3.162,0,0,0,.119.928,1.317,1.317,0,0,0,.409.637,1.826,1.826,0,0,0,.786.367,5.5,5.5,0,0,0,1.252.119h1.943l0-1.619a3.373,3.373,0,0,0-.626-2.289,2.213,2.213,0,0,0-1.727-.691A1.938,1.938,0,0,0-1056.884-1434.963Zm-16.716,10.622-.13-1.468h2.289a4.341,4.341,0,0,0,1.672-.3,3.578,3.578,0,0,0,1.22-.821,3.523,3.523,0,0,0,.755-1.2,4.753,4.753,0,0,0,.3-1.436h-2.159a5.826,5.826,0,0,1-1.813-.238,2.583,2.583,0,0,1-1.121-.691,2.509,2.509,0,0,1-.571-1.091,5.8,5.8,0,0,1-.162-1.435,4.978,4.978,0,0,1,.238-1.554,3.985,3.985,0,0,1,.69-1.292,3.326,3.326,0,0,1,1.134-.9,3.473,3.473,0,0,1,1.565-.337,3.915,3.915,0,0,1,1.36.238,3.06,3.06,0,0,1,1.144.744,3.567,3.567,0,0,1,.788,1.318,5.791,5.791,0,0,1,.292,1.954v2.936a6.341,6.341,0,0,1-.356,2.116,5.4,5.4,0,0,1-1.027,1.781,4.878,4.878,0,0,1-1.641,1.219,5.092,5.092,0,0,1-2.181.454Zm2.181-10.622a2.858,2.858,0,0,0-.561,1.857,3.17,3.17,0,0,0,.119.928,1.313,1.313,0,0,0,.41.637,1.849,1.849,0,0,0,.787.367,5.505,5.505,0,0,0,1.253.119h1.942v-1.619a3.373,3.373,0,0,0-.626-2.289,2.213,2.213,0,0,0-1.727-.691A1.939,1.939,0,0,0-1071.419-1434.963Zm-20.105,9.478v-1.576h1.814v1.576Zm-17.754,0v-1.576h1.814v1.576Zm91.777-.043v-1.533h1.728v1.533Zm-2.742,0v-1.533h1.728v1.533Zm-111.315-4.037h-6.434a3.6,3.6,0,0,1-1.079-.162,2.274,2.274,0,0,1-.918-.551,2.724,2.724,0,0,1-.636-1.025,4.575,4.575,0,0,1-.238-1.587v-10.061h1.4v9.8a2.63,2.63,0,0,0,.4,1.5,1.455,1.455,0,0,0,1.306.593h6.069a1.779,1.779,0,0,0,1.338-.4,1.365,1.365,0,0,0,.367-.96,3.019,3.019,0,0,0-.13-.821,2.616,2.616,0,0,0-.712-1.036l-4.664-4.642v-1.533l7.146-2.829.367,1.4-6.132,2.4,3.908,3.908a12.473,12.473,0,0,1,.853.971,5.107,5.107,0,0,1,.528.821,2.765,2.765,0,0,1,.259.756,4.49,4.49,0,0,1,.066.777,2.918,2.918,0,0,1-.228,1.2,2.152,2.152,0,0,1-.636.831,2.8,2.8,0,0,1-.972.487,4.41,4.41,0,0,1-1.183.162Zm19.6-.162a2.252,2.252,0,0,1-.917-.551,2.736,2.736,0,0,1-.637-1.025,4.552,4.552,0,0,1-.238-1.587v-10.061h1.4v9.8a2.629,2.629,0,0,0,.4,1.5,1.457,1.457,0,0,0,1.306.594h2.31a1.95,1.95,0,0,0,1.349-.454,1.591,1.591,0,0,0,.508-1.252v-2.98h1.406v2.98a3.152,3.152,0,0,1-.852,2.364,3.186,3.186,0,0,1-2.321.831h-2.653A3.569,3.569,0,0,1-1111.957-1429.727Zm27.608.162-.107-1.49h5.959a1.978,1.978,0,0,0,1.306-.389,1.26,1.26,0,0,0,.464-1.014,1.786,1.786,0,0,0-.152-.67,2.29,2.29,0,0,0-.453-.69l-4.016-4.535,1.1-1.036,4.059,4.685a4.283,4.283,0,0,1,.808,1.241,3.188,3.188,0,0,1,.248,1.2,2.514,2.514,0,0,1-.832,1.932,3.361,3.361,0,0,1-2.363.767Zm-37.58,0v-13.386h1.4v13.386Zm29.045,0a3.335,3.335,0,0,1-1.727-.421,2.4,2.4,0,0,1-1.015-1.522,2.2,2.2,0,0,1-.636.54,3.578,3.578,0,0,1-.8.337,4.964,4.964,0,0,1-.842.162,7.634,7.634,0,0,1-.785.043,3.283,3.283,0,0,1-2.407-.821,3.477,3.477,0,0,1-.832-2.569,5.485,5.485,0,0,1,.225-1.566,4.276,4.276,0,0,1,.679-1.371,3.449,3.449,0,0,1,1.134-.972,3.335,3.335,0,0,1,1.608-.367h2.331v-1.49h1.361v6.434a2.794,2.794,0,0,0,.367,1.511,1.454,1.454,0,0,0,1.338.583h2.31a1.949,1.949,0,0,0,1.349-.454,1.591,1.591,0,0,0,.508-1.252v-2.98l1.4,0v2.98a3.154,3.154,0,0,1-.853,2.364,3.179,3.179,0,0,1-2.32.831Zm-7.1-6.378a3.045,3.045,0,0,0-.6,1.975,2.044,2.044,0,0,0,.561,1.663,2.52,2.52,0,0,0,1.619.453,3.137,3.137,0,0,0,1.8-.453,1.35,1.35,0,0,0,.658-1.145v-3.238h-2.314A2.093,2.093,0,0,0-1099.988-1435.946Zm-17.667-2.558v-1.577h1.813v1.577Z" transform="translate(1265.336 1541.91)" fill="#231f20"/><path d="M-1012.3-1307.987a2.667,2.667,0,0,1-1.587-2.992,2.666,2.666,0,0,1,2.629-2.135,2.545,2.545,0,0,1,1.867.778,2.667,2.667,0,0,1,.333,3.37,2.665,2.665,0,0,1-2.217,1.184A2.659,2.659,0,0,1-1012.3-1307.987Zm5.315-.182a2.648,2.648,0,0,1-1.241-2.976,2.648,2.648,0,0,1,2.553-1.969,2.566,2.566,0,0,1,1.884.781,2.614,2.614,0,0,1,.764,1.868,2.581,2.581,0,0,1-.763,1.867,2.647,2.647,0,0,1-1.879.781A2.646,2.646,0,0,1-1006.984-1308.169Zm28.5-1.663a2.65,2.65,0,0,1-1.242-2.976,2.647,2.647,0,0,1,2.552-1.969,2.566,2.566,0,0,1,1.885.782,2.614,2.614,0,0,1,.764,1.867,2.571,2.571,0,0,1-.764,1.867,2.646,2.646,0,0,1-1.878.781A2.642,2.642,0,0,1-978.479-1309.832Zm-55.356.214v-.509a4.945,4.945,0,0,1,3.107-4.6,5.692,5.692,0,0,0,3.582-5.383v-7.761a4.113,4.113,0,0,1,1.22-2.967,4.658,4.658,0,0,1,3.446-1.239v11.966a10.038,10.038,0,0,1-3.157,7.5,11.068,11.068,0,0,1-8.03,2.987Zm35.65-.46v-.492a4.926,4.926,0,0,1,3.123-4.6,5.188,5.188,0,0,0,1.817-1.085.249.249,0,0,0,.05-.086,6.145,6.145,0,0,1-4.515-1.867,6.2,6.2,0,0,1-1.867-4.5,8.987,8.987,0,0,1,1.409-4.839,9.133,9.133,0,0,1,1.732-2.029,11.49,11.49,0,0,1,2.394-1.587,16.432,16.432,0,0,1,7.214-1.358v9.784a1.6,1.6,0,0,0,.509,1.222,1.667,1.667,0,0,0,1.222.509h16.57a8.887,8.887,0,0,0-2.564-5.215,5.839,5.839,0,0,0-3.735-1.609,3.681,3.681,0,0,0-1.783.493,3.473,3.473,0,0,0-1.357,1.493,3.565,3.565,0,0,1-3.226,2.02h-1.75a8.647,8.647,0,0,1,2.259-6.188,7.991,7.991,0,0,1,5.585-2.5h.049a.671.671,0,0,1,.2-.017c.124,0,.247,0,.365.008s.239.014.365.025a9.947,9.947,0,0,1,5.246,1.986,12.669,12.669,0,0,1,3.938,5.179,16.246,16.246,0,0,1,1.189,4.329h4.822a1.63,1.63,0,0,0,1.222-.509,1.661,1.661,0,0,0,.509-1.222v-3.208a4.059,4.059,0,0,1,1.239-2.988,4.64,4.64,0,0,1,3.43-1.239v7.739a1.425,1.425,0,0,0,1.426,1.426,1.426,1.426,0,0,0,1.427-1.426v-4.7a4.116,4.116,0,0,1,1.222-2.972,4.655,4.655,0,0,1,3.446-1.24v8.912a1.363,1.363,0,0,0,.408,1,1.415,1.415,0,0,0,1.552.318,1.416,1.416,0,0,0,.877-1.319v-5.873a4.138,4.138,0,0,1,1.222-2.988,4.657,4.657,0,0,1,3.446-1.239v9.8a1.739,1.739,0,0,0,1.732,1.732h5.637a1.739,1.739,0,0,0,1.732-1.732v-5.568a4.139,4.139,0,0,1,1.222-2.988,4.658,4.658,0,0,1,3.446-1.239v9.793a6.245,6.245,0,0,1-1.867,4.532,6.241,6.241,0,0,1-4.532,1.867h-5.637a5.681,5.681,0,0,1-3.768-1.205,4.748,4.748,0,0,1-3.43,1.205h-1.256a4.839,4.839,0,0,1-3.123-.953,4.845,4.845,0,0,1-3.124.953h-1.256a4.744,4.744,0,0,1-3.429-1.205,5.683,5.683,0,0,1-3.769,1.205h-26.176a5.445,5.445,0,0,1-2.411-.441,9.9,9.9,0,0,1-3.751,4.805,11.019,11.019,0,0,1-6.537,1.9Zm6.825-10.946a4.886,4.886,0,0,1-.2-1.732v-4.482a4.291,4.291,0,0,0-2.378,1.715,4.677,4.677,0,0,0-1.035,2.8,1.558,1.558,0,0,0,.509,1.189,1.647,1.647,0,0,0,1.205.5Zm87.75,4.684h-10.016a4.649,4.649,0,0,1,1.239-3.445,4.084,4.084,0,0,1,2.972-1.223h5.8a1.738,1.738,0,0,0,1.714-1.714,4.645,4.645,0,0,0-1.036-2.784,4.964,4.964,0,0,0-2.937-1.85l-1.458-.306a3.289,3.289,0,0,1-1.935-1.188,3.217,3.217,0,0,1-.729-2.089v-1.595a17.876,17.876,0,0,1,5.772.8,11.449,11.449,0,0,1,3.854,2.155,9.235,9.235,0,0,1,2.343,3.141,8.994,8.994,0,0,1,.8,3.719,6.119,6.119,0,0,1-.866,3.208,6.457,6.457,0,0,1-2.309,2.308,6.165,6.165,0,0,1-3.15.866Zm-110.619,0v-.009a6.12,6.12,0,0,1-4.16-1.875,6.1,6.1,0,0,1-1.882-4.517v-15.6a4.135,4.135,0,0,1,1.222-2.987,4.694,4.694,0,0,1,3.446-1.223v19.812a1.6,1.6,0,0,0,.509,1.223,1.6,1.6,0,0,0,1.222.508h4.448a1.738,1.738,0,0,0,1.732-1.732v-5.567a4.147,4.147,0,0,1,1.22-2.988,4.657,4.657,0,0,1,3.446-1.239v9.8a6.246,6.246,0,0,1-1.868,4.533,6.245,6.245,0,0,1-4.532,1.867Zm94.068-21.985a4.081,4.081,0,0,1,1.239-2.988,4.675,4.675,0,0,1,3.43-1.221v21.966a4.084,4.084,0,0,1-1.222,2.972,4.658,4.658,0,0,1-3.447,1.239Zm-6.857,4.9a2.646,2.646,0,0,1-2.549-1.969,2.647,2.647,0,0,1,1.24-2.973,2.647,2.647,0,0,1,3.193.427,2.615,2.615,0,0,1,.763,1.867,2.639,2.639,0,0,1-.771,1.877,2.638,2.638,0,0,1-1.863.771Zm-24.974-.914a2.641,2.641,0,0,1,0-3.735,2.642,2.642,0,0,1,3.736,0,2.64,2.64,0,0,1,.581,2.885,2.643,2.643,0,0,1-2.449,1.632h-.033A2.549,2.549,0,0,1-951.993-1334.336Zm5.594.009a2.647,2.647,0,0,1-.007-3.744h0a2.646,2.646,0,0,1,1.877-.78,2.645,2.645,0,0,1,1.876.78,2.615,2.615,0,0,1,.764,1.868,2.575,2.575,0,0,1-.764,1.867,2.639,2.639,0,0,1-1.877.78A2.638,2.638,0,0,1-946.4-1334.327Zm-2.385-5.8a2.648,2.648,0,0,1,.009-3.744,2.647,2.647,0,0,1,3.743.009,2.615,2.615,0,0,1,.764,1.868,2.639,2.639,0,0,1-.772,1.876,2.64,2.64,0,0,1-1.877.772h-.029A2.553,2.553,0,0,1-948.784-1340.124Z" transform="translate(1150.136 1401.67)" fill="#4256a6"/></g></svg>