<svg xmlns="http://www.w3.org/2000/svg" width="24" height="24" viewBox="0 0 24 24"><g transform="translate(-172 -316)"><path d="M6.85.75H0A.75.75,0,0,1-.75,0,.75.75,0,0,1,0-.75H6.85A.75.75,0,0,1,7.6,0,.75.75,0,0,1,6.85.75Z" transform="translate(185.02 324.31)" fill="#4a58fc"/><path d="M13,10.75H5A5.75,5.75,0,0,1,5-.75.75.75,0,0,1,5.75,0,.75.75,0,0,1,5,.75a4.25,4.25,0,0,0,0,8.5h8a.75.75,0,0,1,0,1.5Z" transform="translate(175.87 324.31)" fill="#4a58fc"/><path d="M0,5.87a.748.748,0,0,1-.53-.22.75.75,0,0,1,0-1.061L1.5,2.56-.53.53A.75.75,0,0,1-.53-.53.75.75,0,0,1,.53-.53L3.09,2.03a.75.75,0,0,1,0,1.061L.53,5.65A.748.748,0,0,1,0,5.87Z" transform="translate(189.57 321.69)" fill="#4a58fc"/><path d="M0,0H24V24H0Z" transform="translate(172 316)" fill="none" opacity="0"/></g></svg>